<?xml version="1.0" encoding="UTF-8"?>
<svg xmlns="http://www.w3.org/2000/svg" xmlns:xlink="http://www.w3.org/1999/xlink" width="34px" height="17px" viewBox="0 0 50 25" version="1.1">
<g id="surface1">
<path style=" stroke:none;fill-rule:nonzero;fill:rgb(0%,0%,0%);fill-opacity:1;" d="M 26.210938 4.394531 C 26.96875 4.394531 27.953125 4.847656 28.410156 5.453125 L 40.453125 19.773438 C 40.910156 20.304688 40.683594 20.832031 40 20.832031 L 32.652344 20.832031 C 31.894531 20.832031 30.910156 20.378906 30.453125 19.773438 L 18.332031 5.453125 C 17.878906 4.925781 18.03125 4.394531 18.789062 4.394531 Z M 28.863281 23.03125 C 29.316406 23.5625 30.378906 24.089844 31.0625 24.089844 L 47.195312 24.089844 C 47.953125 24.089844 48.183594 23.636719 47.652344 23.03125 L 30 2.121094 C 29.546875 1.589844 28.484375 1.0625 27.804688 1.0625 L 14.925781 1.0625 C 14.167969 1.0625 13.105469 1.4375 12.5 1.894531 L 1.515625 11.136719 C 0.910156 11.589844 0.910156 12.425781 1.4375 12.953125 L 7.425781 18.710938 C 7.953125 19.242188 8.863281 19.242188 9.394531 18.789062 L 16.667969 12.425781 C 17.195312 11.96875 17.046875 11.515625 16.363281 11.515625 L 7.726562 11.515625 C 6.96875 11.515625 6.816406 11.136719 7.425781 10.683594 L 12.726562 6.210938 C 13.332031 5.757812 14.167969 5.832031 14.621094 6.363281 Z M 28.863281 23.03125 "/>
</g>
</svg>
