<?xml version="1.0" encoding="UTF-8"?>
<svg xmlns="http://www.w3.org/2000/svg" xmlns:xlink="http://www.w3.org/1999/xlink" width="25px" height="25px" viewBox="0 0 25 25" version="1.1">
<g id="surface1">
<path style=" stroke:none;fill-rule:nonzero;fill:rgb(0%,0%,0%);fill-opacity:1;" d="M 15.992188 0.207031 C 14.839844 1.007812 13.730469 1.378906 12.5 1.378906 C 11.269531 1.378906 10.160156 1.007812 9.007812 0.207031 L 8.707031 0 L 8.402344 0.203125 C 7.101562 1.0625 6.046875 1.21875 4.433594 1.21875 C 3.875 1.21875 3.277344 1.117188 2.703125 0.917969 L 2.320312 0.785156 L 2.085938 1.117188 C 1.964844 1.292969 1.871094 1.40625 1.78125 1.511719 C 1.671875 1.644531 1.570312 1.773438 1.449219 1.96875 L 1.253906 2.28125 L 1.472656 2.574219 C 2.460938 3.886719 2.832031 5.234375 2.832031 6.503906 C 2.832031 8.867188 1.539062 10.957031 0.519531 12.015625 L 0.152344 12.394531 L 0.527344 12.769531 C 0.726562 12.96875 1.085938 13.339844 1.382812 13.652344 L 1.371094 13.816406 L 1.367188 13.84375 C 1.355469 14.070312 1.347656 14.296875 1.347656 14.523438 C 1.347656 16.925781 2.058594 18.925781 3.464844 20.46875 C 5.089844 22.257812 7.636719 23.324219 10.640625 23.492188 C 11.390625 24.171875 12.148438 24.738281 12.179688 24.761719 L 12.503906 25 L 12.824219 24.761719 C 12.859375 24.734375 13.613281 24.171875 14.359375 23.492188 C 17.363281 23.324219 19.910156 22.257812 21.535156 20.46875 C 22.941406 18.925781 23.652344 16.925781 23.652344 14.523438 C 23.652344 14.300781 23.644531 14.074219 23.632812 13.84375 L 23.632812 13.839844 L 23.628906 13.808594 C 23.628906 13.808594 23.621094 13.664062 23.617188 13.652344 C 23.890625 13.363281 24.261719 12.980469 24.472656 12.769531 L 24.847656 12.394531 L 24.480469 12.015625 C 23.460938 10.957031 22.167969 8.867188 22.167969 6.5 C 22.167969 5.234375 22.539062 3.886719 23.527344 2.574219 L 23.746094 2.28125 L 23.550781 1.96875 C 23.429688 1.773438 23.328125 1.644531 23.21875 1.511719 C 23.128906 1.40625 23.035156 1.292969 22.914062 1.117188 L 22.679688 0.785156 L 22.296875 0.917969 C 21.722656 1.117188 21.125 1.21875 20.566406 1.21875 C 18.953125 1.21875 17.898438 1.0625 16.597656 0.203125 L 16.292969 0 Z M 15.992188 0.207031 "/>
<path style=" stroke:none;fill-rule:nonzero;fill:rgb(88.627452%,72.549021%,0%);fill-opacity:1;" d="M 12.503906 24.328125 C 12.503906 24.328125 11.644531 23.691406 10.867188 22.964844 C 5.785156 22.753906 1.582031 19.90625 1.90625 13.875 C 1.921875 13.714844 1.90625 13.726562 1.933594 13.453125 C 1.644531 13.144531 1.160156 12.644531 0.90625 12.390625 C 2.730469 10.5 4.855469 6.171875 1.90625 2.253906 C 2.097656 1.941406 2.238281 1.835938 2.527344 1.425781 C 3.117188 1.628906 3.773438 1.757812 4.433594 1.757812 C 6.125 1.757812 7.28125 1.589844 8.699219 0.648438 C 9.824219 1.429688 11.042969 1.917969 12.5 1.917969 C 13.957031 1.917969 15.175781 1.429688 16.300781 0.648438 C 17.71875 1.589844 18.875 1.757812 20.566406 1.757812 C 21.226562 1.757812 21.882812 1.628906 22.472656 1.425781 C 22.761719 1.835938 22.902344 1.941406 23.09375 2.253906 C 20.144531 6.171875 22.269531 10.5 24.09375 12.390625 C 23.839844 12.644531 23.355469 13.144531 23.066406 13.453125 C 23.09375 13.726562 23.078125 13.714844 23.09375 13.875 C 23.417969 19.90625 19.214844 22.753906 14.132812 22.964844 C 13.355469 23.691406 12.503906 24.328125 12.503906 24.328125 Z M 12.503906 24.328125 "/>
<path style=" stroke:none;fill-rule:nonzero;fill:rgb(0%,0%,0%);fill-opacity:1;" d="M 2.867188 13.515625 L 2.796875 13.515625 L 2.765625 13.773438 L 2.742188 13.941406 C 2.625 16.265625 3.203125 18.140625 4.464844 19.527344 C 5.914062 21.113281 8.253906 22.015625 11.242188 22.140625 C 11.246094 22.140625 11.292969 22.140625 11.292969 22.140625 C 12.1875 22.144531 13.035156 22.148438 13.753906 22.140625 C 16.746094 22.015625 19.085938 21.113281 20.535156 19.527344 C 21.796875 18.140625 22.375 16.265625 22.257812 13.945312 C 22.257812 13.941406 22.234375 13.773438 22.234375 13.773438 L 22.203125 13.515625 Z M 2.867188 13.515625 "/>
<path style=" stroke:none;fill-rule:nonzero;fill:rgb(0%,29.411766%,58.431375%);fill-opacity:1;" d="M 2.941406 13.675781 L 2.925781 13.796875 C 2.925781 13.796875 2.90625 13.953125 2.90625 13.953125 C 2.894531 14.144531 2.890625 14.335938 2.890625 14.523438 C 2.890625 16.539062 3.460938 18.179688 4.585938 19.417969 C 4.855469 19.710938 5.15625 19.984375 5.488281 20.230469 L 5.488281 13.675781 Z M 22.09375 13.957031 L 22.074219 13.796875 L 22.058594 13.675781 L 19.511719 13.675781 L 19.511719 20.230469 C 19.84375 19.984375 20.144531 19.710938 20.414062 19.417969 C 21.542969 18.179688 22.109375 16.539062 22.109375 14.527344 C 22.109375 14.339844 22.105469 14.152344 22.09375 13.957031 Z M 22.09375 13.957031 "/>
<path style=" stroke:none;fill-rule:nonzero;fill:rgb(64.313728%,13.725491%,29.411766%);fill-opacity:1;" d="M 8.292969 13.675781 L 5.488281 13.675781 L 5.488281 20.230469 C 6.261719 20.804688 7.207031 21.246094 8.292969 21.542969 Z M 16.707031 13.675781 L 16.707031 21.542969 C 17.792969 21.246094 18.738281 20.804688 19.511719 20.230469 L 19.511719 13.675781 Z M 16.707031 13.675781 "/>
<path style=" stroke:none;fill-rule:nonzero;fill:rgb(0%,29.411766%,58.431375%);fill-opacity:1;" d="M 9.8125 17.710938 C 9.8125 16.742188 10.324219 15.890625 11.097656 15.417969 L 11.097656 13.675781 L 8.292969 13.675781 L 8.292969 21.542969 C 9.144531 21.777344 10.082031 21.917969 11.097656 21.972656 L 11.097656 20.007812 C 10.324219 19.535156 9.8125 18.683594 9.8125 17.710938 Z M 13.902344 13.675781 L 13.902344 15.417969 C 14.675781 15.890625 15.1875 16.742188 15.1875 17.710938 C 15.1875 18.683594 14.675781 19.535156 13.902344 20.007812 L 13.902344 21.972656 C 14.917969 21.917969 15.859375 21.777344 16.707031 21.542969 L 16.707031 13.675781 Z M 13.902344 13.675781 "/>
<path style=" stroke:none;fill-rule:nonzero;fill:rgb(64.313728%,13.725491%,29.411766%);fill-opacity:1;" d="M 13.902344 15.417969 L 13.902344 13.675781 L 11.097656 13.675781 L 11.097656 15.417969 C 11.503906 15.167969 11.984375 15.023438 12.5 15.023438 C 13.015625 15.023438 13.496094 15.167969 13.902344 15.417969 Z M 11.097656 20.007812 L 11.097656 21.972656 C 11.148438 21.972656 11.195312 21.976562 11.246094 21.976562 L 11.292969 21.980469 C 12.1875 21.984375 13.035156 21.988281 13.75 21.980469 C 13.800781 21.976562 13.851562 21.972656 13.902344 21.972656 L 13.902344 20.007812 C 13.496094 20.257812 13.015625 20.402344 12.5 20.402344 C 11.984375 20.402344 11.503906 20.257812 11.097656 20.007812 Z M 11.097656 20.007812 "/>
<path style=" stroke:none;fill-rule:nonzero;fill:rgb(88.627452%,72.549021%,0%);fill-opacity:1;" d="M 11.128906 18.199219 C 10.640625 17.757812 10.640625 16.855469 10.769531 16.257812 C 10.808594 16.09375 10.851562 15.929688 10.898438 15.742188 C 10.328125 16.207031 9.960938 16.917969 9.960938 17.710938 C 9.960938 18.039062 10.023438 18.363281 10.148438 18.664062 C 10.191406 18.667969 10.234375 18.671875 10.277344 18.671875 C 10.652344 18.671875 10.960938 18.5 11.128906 18.199219 Z M 13.742188 18.394531 C 13.65625 18.820312 13.203125 19.136719 12.773438 19.394531 C 12.332031 19.65625 11.621094 19.792969 11.082031 19.820312 C 11.488281 20.089844 11.976562 20.25 12.5 20.25 C 13.457031 20.25 14.289062 19.71875 14.722656 18.9375 C 14.648438 18.3125 14.050781 18.238281 13.742188 18.394531 Z M 13.742188 18.394531 "/>
<path style=" stroke:none;fill-rule:nonzero;fill:rgb(88.627452%,72.549021%,0%);fill-opacity:1;" d="M 10.886719 19.671875 C 11.417969 19.675781 12.230469 19.542969 12.695312 19.265625 C 13.300781 18.90625 13.769531 18.519531 13.546875 17.988281 C 13.433594 17.71875 13.058594 17.410156 12.574219 17.75 C 12.542969 18.148438 12.054688 18.5 11.699219 18.453125 C 11.523438 18.429688 11.371094 18.375 11.25 18.292969 C 11.050781 18.632812 10.695312 18.824219 10.277344 18.824219 C 10.257812 18.824219 10.238281 18.824219 10.21875 18.820312 C 10.375 19.148438 10.605469 19.441406 10.886719 19.671875 Z M 12.492188 16.128906 C 12.914062 15.957031 13.496094 16.183594 13.9375 16.429688 C 14.355469 16.664062 14.792969 17.101562 15.035156 17.558594 C 14.953125 16.234375 13.863281 15.1875 12.523438 15.175781 C 12.121094 15.4375 12.175781 15.933594 12.492188 16.128906 Z M 12.492188 16.128906 "/>
<path style=" stroke:none;fill-rule:nonzero;fill:rgb(88.627452%,72.549021%,0%);fill-opacity:1;" d="M 12.421875 17.75 C 11.902344 17.371094 11.933594 16.773438 12.160156 16.421875 C 12.214844 16.332031 12.277344 16.265625 12.347656 16.210938 C 12.046875 15.972656 11.984375 15.503906 12.277344 15.183594 C 11.851562 15.21875 11.445312 15.363281 11.089844 15.601562 C 10.976562 16.078125 10.835938 16.515625 10.84375 17.011719 C 10.855469 17.683594 11.132812 18.230469 11.71875 18.304688 C 11.996094 18.339844 12.390625 18.046875 12.421875 17.75 Z M 12.421875 17.75 "/>
<path style=" stroke:none;fill-rule:nonzero;fill:rgb(88.627452%,72.549021%,0%);fill-opacity:1;" d="M 15.027344 17.945312 C 14.882812 17.421875 14.363281 16.839844 13.863281 16.5625 C 13.25 16.21875 12.582031 16.035156 12.285156 16.5 C 12.097656 16.800781 12.070312 17.296875 12.5 17.621094 C 13.082031 17.214844 13.550781 17.609375 13.683594 17.929688 C 13.726562 18.035156 13.75 18.132812 13.753906 18.226562 C 14.097656 18.105469 14.65625 18.183594 14.832031 18.71875 C 14.9375 18.472656 15.003906 18.210938 15.027344 17.945312 Z M 15.027344 17.945312 "/>
<path style=" stroke:none;fill-rule:nonzero;fill:rgb(0%,0%,0%);fill-opacity:1;" d="M 10.1875 10.589844 L 8.414062 10.589844 L 8.414062 13.082031 L 8.953125 13.082031 L 8.953125 12.054688 L 9.6875 12.054688 L 9.6875 11.527344 L 8.953125 11.527344 L 8.953125 11.117188 L 10.210938 11.117188 L 10.210938 10.589844 Z M 11.21875 11.835938 C 11.21875 12.617188 11.648438 13.121094 12.3125 13.121094 C 12.746094 13.121094 13.058594 12.929688 13.238281 12.554688 L 13.25 12.535156 L 12.792969 12.265625 L 12.78125 12.285156 C 12.652344 12.503906 12.527344 12.582031 12.324219 12.582031 C 11.996094 12.582031 11.773438 12.28125 11.773438 11.835938 C 11.773438 11.375 11.984375 11.085938 12.324219 11.085938 C 12.519531 11.085938 12.65625 11.167969 12.746094 11.339844 L 12.757812 11.359375 L 13.257812 11.128906 L 13.246094 11.105469 C 13.070312 10.742188 12.753906 10.550781 12.328125 10.550781 C 11.675781 10.550781 11.21875 11.078125 11.21875 11.835938 Z M 16.265625 11.730469 C 16.414062 11.625 16.503906 11.457031 16.503906 11.257812 C 16.503906 10.839844 16.203125 10.589844 15.703125 10.589844 L 14.558594 10.589844 L 14.558594 13.082031 L 15.691406 13.082031 C 16.253906 13.082031 16.585938 12.777344 16.585938 12.269531 C 16.585938 12.027344 16.46875 11.839844 16.265625 11.730469 Z M 15.085938 11.089844 L 15.683594 11.089844 C 15.925781 11.089844 15.957031 11.203125 15.957031 11.296875 C 15.957031 11.4375 15.875 11.503906 15.707031 11.503906 L 15.085938 11.503906 Z M 15.710938 12.566406 L 15.085938 12.566406 L 15.085938 11.988281 L 15.710938 11.988281 C 15.929688 11.988281 16.03125 12.078125 16.03125 12.273438 C 16.03125 12.464844 15.921875 12.566406 15.710938 12.566406 Z M 16.269531 1.671875 C 15.0625 2.402344 13.828125 2.757812 12.5 2.757812 C 11.171875 2.757812 9.9375 2.402344 8.730469 1.671875 L 8.6875 1.648438 L 8.648438 1.671875 C 7.269531 2.449219 6.058594 2.601562 4.433594 2.601562 C 4.042969 2.601562 3.636719 2.5625 3.234375 2.484375 L 3.058594 2.449219 L 3.148438 2.605469 C 4.820312 5.464844 4.226562 8.230469 3.433594 10.046875 L 3.386719 10.160156 L 21.613281 10.160156 L 21.566406 10.046875 C 20.773438 8.230469 20.179688 5.464844 21.851562 2.605469 L 21.941406 2.449219 L 21.765625 2.484375 C 21.363281 2.5625 20.957031 2.601562 20.566406 2.601562 C 18.941406 2.601562 17.730469 2.449219 16.351562 1.671875 L 16.3125 1.648438 Z M 16.269531 1.671875 "/>
<path style=" stroke:none;fill-rule:nonzero;fill:rgb(100%,100%,100%);fill-opacity:1;" d="M 6.910156 2.53125 C 6.144531 2.710938 5.355469 2.761719 4.433594 2.761719 C 4.082031 2.761719 3.726562 2.726562 3.367188 2.664062 C 3.792969 3.429688 4.0625 4.183594 4.21875 4.917969 L 6.910156 4.917969 Z M 12.417969 4.917969 L 12.417969 2.917969 C 11.453125 2.910156 10.539062 2.710938 9.644531 2.324219 L 9.644531 4.917969 Z M 4.292969 7.652344 C 4.167969 8.53125 3.914062 9.324219 3.628906 9.996094 L 6.910156 9.996094 L 6.910156 7.652344 Z M 9.644531 9.996094 L 12.417969 9.996094 L 12.417969 7.652344 L 9.644531 7.652344 Z M 9.644531 9.996094 "/>
<path style=" stroke:none;fill-rule:nonzero;fill:rgb(85.882354%,18.431373%,21.176471%);fill-opacity:1;" d="M 9.644531 4.917969 L 9.644531 2.324219 C 9.324219 2.1875 9.003906 2.023438 8.683594 1.832031 C 8.078125 2.171875 7.5 2.390625 6.910156 2.53125 L 6.910156 4.917969 L 4.21875 4.917969 C 4.328125 5.429688 4.382812 5.957031 4.382812 6.480469 C 4.382812 6.886719 4.347656 7.277344 4.292969 7.652344 L 6.910156 7.652344 L 6.910156 9.996094 L 9.644531 9.996094 L 9.644531 7.652344 L 12.417969 7.652344 L 12.417969 4.917969 Z M 9.644531 4.917969 "/>
<path style=" stroke:none;fill-rule:nonzero;fill:rgb(100%,87.450981%,0%);fill-opacity:1;" d="M 16.316406 1.832031 L 16.3125 1.835938 L 16.3125 9.996094 L 17.273438 9.996094 L 17.273438 2.28125 C 16.957031 2.160156 16.640625 2.015625 16.316406 1.832031 Z M 14.386719 2.667969 L 14.386719 9.996094 L 15.347656 9.996094 L 15.347656 2.328125 C 15.035156 2.464844 14.714844 2.578125 14.386719 2.667969 Z M 12.582031 2.917969 L 12.582031 9.996094 L 13.425781 9.996094 L 13.425781 2.859375 C 13.144531 2.894531 12.863281 2.914062 12.582031 2.917969 Z M 18.234375 2.5625 L 18.234375 9.996094 L 19.195312 9.996094 L 19.195312 2.707031 C 18.867188 2.675781 18.546875 2.628906 18.234375 2.5625 Z M 20.617188 6.480469 C 20.617188 5.285156 20.894531 3.988281 21.632812 2.664062 C 21.273438 2.726562 20.917969 2.761719 20.566406 2.761719 C 20.429688 2.761719 20.292969 2.761719 20.160156 2.757812 L 20.160156 9.996094 L 21.371094 9.996094 C 20.964844 9.035156 20.617188 7.824219 20.617188 6.480469 Z M 20.617188 6.480469 "/>
<path style=" stroke:none;fill-rule:nonzero;fill:rgb(85.882354%,18.431373%,21.176471%);fill-opacity:1;" d="M 19.195312 2.707031 L 19.195312 9.996094 L 20.160156 9.996094 L 20.160156 2.757812 C 19.824219 2.75 19.503906 2.734375 19.195312 2.707031 Z M 13.425781 2.859375 L 13.425781 9.996094 L 14.386719 9.996094 L 14.386719 2.667969 C 14.070312 2.753906 13.75 2.816406 13.425781 2.859375 Z M 15.347656 2.328125 L 15.347656 9.996094 L 16.3125 9.996094 L 16.3125 1.835938 C 15.992188 2.023438 15.671875 2.1875 15.347656 2.328125 Z M 17.273438 2.28125 L 17.273438 9.996094 L 18.234375 9.996094 L 18.234375 2.5625 C 17.90625 2.492188 17.585938 2.398438 17.273438 2.28125 Z M 17.273438 2.28125 "/>
</g>
</svg>
